<svg xmlns="http://www.w3.org/2000/svg" width="17.608" height="14.828" viewBox="0 0 17.608 14.828">
  <path id="cart" d="M13.345,14.828a2.224,2.224,0,0,1,0-4.448H6.673a2.236,2.236,0,1,1-1.569.655,2.207,2.207,0,0,1,1.569-.655h-.9A1.474,1.474,0,0,1,4.333,9.268L2.386,1.483H.741A.741.741,0,0,1,.741,0H2.386A1.474,1.474,0,0,1,3.823,1.112L5.769,8.9h8.5l1.413-5.189H5.56L5.19,2.224H17.608L15.685,9.291a1.456,1.456,0,0,1-1.413,1.089h-.927a2.224,2.224,0,0,1,0,4.448Zm0-2.965a.741.741,0,1,0,.741.741A.733.733,0,0,0,13.345,11.863Zm-6.673,0a.741.741,0,1,0,.741.741A.733.733,0,0,0,6.673,11.863Z" fill="#fff"/>
</svg>
