<svg xmlns="http://www.w3.org/2000/svg" width="67.608" height="56.828" viewBox="0 0 67.608 56.828">
  <path id="cart" d="M51.24,56.828a8.523,8.523,0,0,1,0-17.047H25.62a8.577,8.577,0,1,1-6.025,2.51,8.482,8.482,0,0,1,6.025-2.51H22.151a5.657,5.657,0,0,1-5.516-4.263L9.162,5.682H2.846A2.841,2.841,0,1,1,2.846,0H9.162a5.656,5.656,0,0,1,5.516,4.263L22.151,34.1H54.8l5.426-19.888H21.349L19.927,8.523H67.608L60.225,35.608A5.589,5.589,0,0,1,54.8,39.781H51.24a8.523,8.523,0,0,1,0,17.047Zm0-11.365A2.841,2.841,0,1,0,54.086,48.3,2.814,2.814,0,0,0,51.24,45.463Zm-25.62,0A2.841,2.841,0,1,0,28.466,48.3,2.814,2.814,0,0,0,25.62,45.463Z"/>
</svg>
