<svg xmlns="http://www.w3.org/2000/svg" width="63.333" height="63.333" viewBox="0 0 63.333 63.333">
  <path id="Combined_Shape" data-name="Combined Shape" d="M13.071,63.333a10.1,10.1,0,0,1-8-4A26.434,26.434,0,0,1,0,43.332c0-11.514,8.148-22.905,18.951-26.5,5.286-1.755,14.052-1.218,19.14,1.176l-.061.129c2.657-2.844,6.071-6.11,10.585-5.407l1.91-2.866a5,5,0,1,1,5.861-6.525,3.334,3.334,0,0,1,1.028.074,5,5,0,1,1-.946,9.556l-2.006,3.009c3.463,4.212,1.156,10.636-.193,14.388-.249.7-.558,1.556-.751,2.2a22.89,22.89,0,0,0,5.605,5.738c2.418,1.794,4.134,3.42,4.2,8.04A19.736,19.736,0,0,1,57.8,59.538a11.522,11.522,0,0,1-8.175,3.795Zm7.983-40.167C12.987,25.842,6.666,34.7,6.666,43.332a19.962,19.962,0,0,0,3.72,11.982,3.35,3.35,0,0,0,2.685,1.353H49.626a5.391,5.391,0,0,0,3.426-1.809,12.991,12.991,0,0,0,3.609-8.412c-.024-1.683-.024-1.683-1.509-2.787-.462-.343-.986-.731-1.567-1.207a9.336,9.336,0,0,1-2.114,4.411C49.632,48.948,46.893,50,43.338,50l-.006-6.669h.009c1.071,0,2.487-.153,3.126-.879,1.089-1.236.675-4.536.429-6.507a23.285,23.285,0,0,1-.228-2.613A16.469,16.469,0,0,1,48,28.116c2.013-5.595,2.136-7.653.51-8.466-1.593-.789-2.637-.162-6.243,3.729-2.055,2.223-4.38,4.74-7.44,6.27-6.252,3.123-8.157,5.544-8.157,10.35A3.9,3.9,0,0,0,30,43.332V50A10.534,10.534,0,0,1,20,40c0-8.625,4.731-12.759,11.841-16.317a8.871,8.871,0,0,0,.866-.5,27.51,27.51,0,0,0-6.293-.711A17.85,17.85,0,0,0,21.054,23.166Z"/>
</svg>
