<svg xmlns="http://www.w3.org/2000/svg" width="225.863" height="24.922" viewBox="0 0 225.863 24.922">
  <path id="Combined_Shape" data-name="Combined Shape" d="M210.511,21.53a2.392,2.392,0,1,1,2.391,2.392A2.392,2.392,0,0,1,210.511,21.53Zm-19.138,0a2.392,2.392,0,1,1,2.392,2.392A2.392,2.392,0,0,1,191.373,21.53Zm-19.138,0a2.392,2.392,0,1,1,2.392,2.392A2.392,2.392,0,0,1,172.236,21.53Zm-19.138,0a2.392,2.392,0,1,1,2.392,2.392A2.392,2.392,0,0,1,153.1,21.53Zm-19.137,0a2.392,2.392,0,1,1,2.392,2.392A2.392,2.392,0,0,1,133.961,21.53Zm-19.138,0a2.392,2.392,0,1,1,2.392,2.392A2.392,2.392,0,0,1,114.824,21.53Zm-19.137,0a2.392,2.392,0,1,1,2.391,2.392A2.392,2.392,0,0,1,95.687,21.53Zm-19.138,0a2.392,2.392,0,1,1,2.392,2.392A2.392,2.392,0,0,1,76.549,21.53Zm-19.138,0A2.392,2.392,0,1,1,59.8,23.922,2.392,2.392,0,0,1,57.412,21.53Zm-19.138,0a2.392,2.392,0,1,1,2.392,2.392A2.392,2.392,0,0,1,38.274,21.53Zm-19.137,0a2.392,2.392,0,1,1,2.392,2.392A2.392,2.392,0,0,1,19.138,21.53ZM0,21.53a2.392,2.392,0,1,1,2.392,2.392A2.392,2.392,0,0,1,0,21.53ZM220.08,2.392a2.392,2.392,0,1,1,2.391,2.392A2.392,2.392,0,0,1,220.08,2.392Zm-19.138,0a2.392,2.392,0,1,1,2.392,2.392A2.392,2.392,0,0,1,200.942,2.392Zm-19.138,0A2.392,2.392,0,1,1,184.2,4.784,2.392,2.392,0,0,1,181.8,2.392Zm-19.138,0a2.392,2.392,0,1,1,2.392,2.392A2.392,2.392,0,0,1,162.667,2.392Zm-19.137,0a2.392,2.392,0,1,1,2.392,2.392A2.392,2.392,0,0,1,143.53,2.392Zm-19.138,0a2.392,2.392,0,1,1,2.392,2.392A2.392,2.392,0,0,1,124.393,2.392Zm-19.137,0a2.392,2.392,0,1,1,2.391,2.392A2.392,2.392,0,0,1,105.256,2.392Zm-19.138,0a2.392,2.392,0,1,1,2.392,2.392A2.392,2.392,0,0,1,86.118,2.392Zm-19.138,0a2.392,2.392,0,1,1,2.392,2.392A2.392,2.392,0,0,1,66.981,2.392Zm-19.138,0a2.392,2.392,0,1,1,2.392,2.392A2.392,2.392,0,0,1,47.843,2.392Zm-19.137,0A2.392,2.392,0,1,1,31.1,4.784,2.392,2.392,0,0,1,28.706,2.392Zm-19.138,0a2.392,2.392,0,1,1,2.392,2.392A2.392,2.392,0,0,1,9.569,2.392Z" transform="translate(0.5 0.5)" fill="#e25050" stroke="#c7c7c7" stroke-width="1"/>
</svg>
