<svg xmlns="http://www.w3.org/2000/svg" width="18.5" height="17.625" viewBox="0 0 18.5 17.625">
  <path id="Path_155" data-name="Path 155" d="M127.228,803.931l-5.175,3.6a.308.308,0,0,1-.471-.342l1.825-6.034a.309.309,0,0,0-.108-.335l-5.024-3.808a.308.308,0,0,1,.18-.553l6.3-.129a.308.308,0,0,0,.285-.207l2.07-5.954a.308.308,0,0,1,.581,0l2.07,5.954a.308.308,0,0,0,.285.207l6.3.129a.308.308,0,0,1,.18.553l-5.024,3.808a.309.309,0,0,0-.108.335l1.825,6.034a.308.308,0,0,1-.471.342l-5.175-3.6A.309.309,0,0,0,127.228,803.931Z" transform="translate(-118.154 -789.963)" fill="#febc52"/>
</svg>
