<svg id="telegram-plane" xmlns="http://www.w3.org/2000/svg" width="34.649" height="31.123" viewBox="0 0 34.649 31.123">
  <path id="Shape" d="M26.545,31.123a3.64,3.64,0,0,1-1.468-.31l-.146-.062-6.441-4.942-3.843,3.5-.047.037a2.3,2.3,0,0,1-1.28.414,1.994,1.994,0,0,1-.58-.086.962.962,0,0,1-.156-.031.1.1,0,0,1-.021-.011l-.019-.011-.009,0-.018-.01a1.459,1.459,0,0,1-.245-.115,1.865,1.865,0,0,1-.505-.468A4.806,4.806,0,0,1,11,27.413c-.261-.821-1.035-3.354-1.657-5.39-.337-1.1-.627-2.051-.732-2.39L2.1,17.441h-.01a3.968,3.968,0,0,1-.885-.474A2.648,2.648,0,0,1,.015,15.109a2.2,2.2,0,0,1,.37-1.479,2.656,2.656,0,0,1,.781-.755,4.381,4.381,0,0,1,.915-.478l.063-.027.046-.019c.979-.413,7.375-3.109,13.874-5.846l2.079-.876.038-.016L25.9,2.363l.788-.331c2.288-.96,3.8-1.6,4.143-1.731a4.067,4.067,0,0,1,1.25-.3l.122,0a2.508,2.508,0,0,1,1.3.363,2.4,2.4,0,0,1,1.041,1.4,3.637,3.637,0,0,1-.02,1.791l-4.978,25.5-.047.12A3.53,3.53,0,0,1,28.5,30.5,3.2,3.2,0,0,1,26.545,31.123Zm-8.207-8.787h0l7.877,6.04a1.273,1.273,0,0,0,.424.113.28.28,0,0,0,.2-.077.549.549,0,0,0,.148-.179l.008-.015L31.923,2.986V2.971a.652.652,0,0,0,.025-.177c0-.015,0-.032,0-.057h-.03a.051.051,0,0,0-.034.008.5.5,0,0,1-.072.033c-.1.042-2.115.88-4.879,2.041-2.515,1.062-5.783,2.438-8.943,3.769l-.893.376c-7.06,2.973-14.006,5.9-14.006,5.9l-.042.016-.042.02a.362.362,0,0,1-.041.016l.01,0,.01,0,7.779,2.625.006.026L27,7.516a1.432,1.432,0,0,1,.518-.146.287.287,0,0,1,.218.076.321.321,0,0,1,.067.247.076.076,0,0,1,.027.054c.008.078-.051.236-.381.544-.525.489-12.749,11.883-12.871,12l-1,6.384,4.758-4.336Z" transform="translate(0 0)" fill="#38b54d"/>
</svg>
