<svg xmlns="http://www.w3.org/2000/svg" width="69.148" height="58.776" viewBox="0 0 69.148 58.776">
  <g id="Group_1852" data-name="Group 1852" transform="translate(-2 -4)">
    <path id="Path_1231" data-name="Path 1231" d="M59.047,14.372h-12.1V4H2V55.861H9.551a10.312,10.312,0,0,0,19.472,0H47.583A10.347,10.347,0,0,0,67.691,52.4h3.457v-21.9ZM8.915,10.915H40.032v24.2h6.915V21.287H55.59l8.644,11.524V44.728a10.277,10.277,0,0,0-16.651,4.218H29.023a10.312,10.312,0,0,0-19.472,0H8.915ZM19.287,55.861A3.457,3.457,0,1,1,22.744,52.4,3.461,3.461,0,0,1,19.287,55.861Zm38.032,0A3.457,3.457,0,1,1,60.776,52.4,3.459,3.459,0,0,1,57.319,55.861Z"/>
    <rect id="Rectangle_354" data-name="Rectangle 354" width="17" height="7" transform="translate(16 27.776)"/>
    <rect id="Rectangle_355" data-name="Rectangle 355" width="17" height="6" transform="translate(16 18.776)"/>
  </g>
</svg>
