<svg xmlns="http://www.w3.org/2000/svg" width="16.19" height="18.91" viewBox="0 0 16.19 18.91">
  <path id="Path_1" data-name="Path 1" d="M18.071,13.745l-.059.07a9.4,9.4,0,0,1-7.243,3.595,9.4,9.4,0,0,1-7.244-3.595l-.058-.07.014-.09A7.465,7.465,0,0,1,7.06,8.15L7.2,8.07l.11.115a4.772,4.772,0,0,0,6.922,0l.11-.115.138.079a7.467,7.467,0,0,1,3.58,5.505Zm-7.3-5.05A4.347,4.347,0,1,0,6.422,4.347,4.352,4.352,0,0,0,10.769,8.695Z" transform="translate(-2.675 0.75)" fill="none" stroke="#fff" stroke-width="1.5"/>
</svg>
